<?xml version="1.0" ?><!DOCTYPE svg  PUBLIC '-//W3C//DTD SVG 1.1//EN'  'http://www.w3.org/Graphics/SVG/1.1/DTD/svg11.dtd'><svg enable-background="new 0 0 72 72" id="Layer_1" version="1.1" viewBox="0 0 72 72" xml:space="preserve" xmlns="http://www.w3.org/2000/svg" xmlns:xlink="http://www.w3.org/1999/xlink"><g><path d="M29.8,48.3c-0.2-0.1-0.2-0.3-0.1-0.5c0.3-0.6,0.3-1.3-0.1-1.8c-0.3-0.5-0.8-0.8-1.4-0.9   c-0.2,0-0.3-0.1-0.3-0.3c-0.1-0.6-0.4-1.1-0.9-1.4c-0.6-0.3-1.2-0.3-1.8-0.1c-0.2,0.1-0.4,0-0.5-0.1c-0.4-0.5-0.9-0.8-1.6-0.8   c-0.7,0-1.3,0.4-1.6,0.9c-0.1,0.2-0.3,0.2-0.5,0.1c-0.6-0.3-1.3-0.3-1.8,0.1c-0.5,0.3-0.8,0.8-0.9,1.4c0,0.2-0.1,0.3-0.3,0.3   c-0.6,0.1-1.1,0.4-1.4,0.9c-0.3,0.6-0.3,1.2-0.1,1.8c0.1,0.2,0,0.4-0.1,0.5c-0.5,0.4-0.8,0.9-0.8,1.6c0,0.7,0.4,1.3,0.9,1.6   c0.2,0.1,0.2,0.3,0.1,0.5c-0.3,0.6-0.3,1.3,0.1,1.8c0.3,0.5,0.8,0.8,1.4,0.9c0.2,0,0.3,0.1,0.3,0.3c0.1,0.6,0.4,1.1,0.9,1.4   c0.6,0.3,1.2,0.3,1.8,0.1c0.2-0.1,0.4,0,0.5,0.1c0.4,0.5,0.9,0.8,1.6,0.8c0.7,0,1.3-0.4,1.6-0.9c0.1-0.2,0.3-0.2,0.5-0.1   c0.6,0.3,1.3,0.3,1.8-0.1c0.5-0.3,0.8-0.8,0.9-1.4c0-0.2,0.1-0.3,0.3-0.3c0.6-0.1,1.1-0.4,1.4-0.9c0.3-0.6,0.3-1.2,0.1-1.8   c-0.1-0.2,0-0.4,0.1-0.5c0.5-0.4,0.8-0.9,0.8-1.6C30.7,49.3,30.3,48.7,29.8,48.3z" fill="#ffffff"/><path d="M26.3,58.4c-0.2,0-0.5,0-0.7,0c-0.1,0-0.2,0-0.2,0.1c-0.6,0.5-1.4,0.8-2.3,0.8c-0.8,0-1.6-0.3-2.2-0.7   c-0.1,0-0.1-0.1-0.2-0.1c-0.2,0-0.7,0-0.8,0c-0.2,0-0.3,0.1-0.3,0.3v6.6c0,0.2,0.2,0.3,0.4,0.2l3-1.5c0.1,0,0.2,0,0.2,0l3,1.5   c0.2,0.1,0.4,0,0.4-0.2v-6.6C26.6,58.5,26.5,58.4,26.3,58.4z" fill="#ffffff"/><path d="M61.1,0.5H10.9c-1.1,0-2,0.9-2,2v67c0,1.1,0.9,2,2,2h50.2c1.1,0,2-0.9,2-2v-67C63.1,1.4,62.2,0.5,61.1,0.5z    M59.1,66c0,0.8-0.7,1.5-1.5,1.5H14.4c-0.8,0-1.5-0.7-1.5-1.5V6c0-0.8,0.7-1.5,1.5-1.5h43.1c0.8,0,1.5,0.7,1.5,1.5V66z" fill="#ffffff"/><path d="M21.9,14h28.1c1.1,0,2-0.9,2-2s-0.9-2-2-2H21.9c-1.1,0-2,0.9-2,2S20.8,14,21.9,14z" fill="#ffffff"/><path d="M54.8,18.9H17.2c-0.8,0-1.5,0.7-1.5,1.5s0.7,1.5,1.5,1.5h37.6c0.8,0,1.5-0.7,1.5-1.5S55.6,18.9,54.8,18.9z" fill="#ffffff"/><path d="M54.8,26.6H17.2c-0.8,0-1.5,0.7-1.5,1.5s0.7,1.5,1.5,1.5h37.6c0.8,0,1.5-0.7,1.5-1.5S55.6,26.6,54.8,26.6z" fill="#ffffff"/><path d="M54.8,34.3H17.2c-0.8,0-1.5,0.7-1.5,1.5c0,0.8,0.7,1.5,1.5,1.5h37.6c0.8,0,1.5-0.7,1.5-1.5   C56.3,34.9,55.6,34.3,54.8,34.3z" fill="#ffffff"/><path d="M55,54.7l-3-1.2c0.1-1.1,0.1-2.3-0.1-3.4c-0.1-0.7-0.6-1.2-1.3-1.3c-0.6-0.1-1.1,0.2-1.4,0.7   c0.1-1.8,0.1-3.7,0-5.5c0-0.7-0.5-1.2-1.1-1.4c-0.6-0.2-1.3,0.1-1.7,0.7c-1.3,2.1-1.8,4.5-2.3,6.7c0,0.2-0.1,0.5-0.1,0.7   c-0.2-0.1-0.5-0.1-0.8,0c-0.6,0.1-1.1,0.6-1.2,1.3L42,52.7c-0.1,0.5,0.1,1,0.5,1.3c0.2,0.1,0.3,0.3,0.5,0.3c-0.3,0.7-0.7,1.4-1.1,2   c-0.5,0.6-1,0.9-1.4,0.9c-0.8-0.1-1.5,0.6-1.6,1.4c-0.1,0.8,0.6,1.5,1.4,1.6c1.4,0.1,2.8-0.6,3.9-2c0.5-0.6,0.9-1.3,1.3-2   c-0.3,1.6-0.6,3.1-1,4.6c-0.2,0.7,0.2,1.5,0.9,1.7c0.2,0.1,0.4,0.1,0.6,0.1c0.5,0,1-0.3,1.3-0.7c0.9-1.6,1.8-3.2,2.6-4.8   c0.1,0,0.2,0,0.3,0c0.5-0.1,0.9-0.3,1.1-0.7l2.6,1c0.8,0.3,1.6-0.1,1.9-0.9C56.2,55.8,55.8,55,55,54.7z" fill="#ffffff"/></g></svg>
